<svg width="24" height="24" viewBox="0 0 24 24" xmlns="http://www.w3.org/2000/svg">
  <!-- Magnifying glass circle -->
  <circle cx="10" cy="10" r="7" fill="none" stroke="#8B5CF6" stroke-width="2"/>
  
  <!-- Tree structure inside magnifying glass -->
  <!-- Root node -->
  <circle cx="10" cy="7" r="1" fill="#8B5CF6"/>
  
  <!-- Branch connections -->
  <path d="M10 8L10 9.5M10 9.5L8 9.5M10 9.5L12 9.5" stroke="#8B5CF6" stroke-width="1" fill="none"/>
  
  <!-- Left branch -->
  <circle cx="8" cy="11" r="0.8" fill="#A78BFA"/>
  <path d="M8 9.5L8 10.2" stroke="#8B5CF6" stroke-width="1"/>
  
  <!-- Right branch -->
  <circle cx="12" cy="11" r="0.8" fill="#A78BFA"/>
  <path d="M12 9.5L12 10.2" stroke="#8B5CF6" stroke-width="1"/>
  
  <!-- Sub-nodes -->
  <path d="M12 11.8L12 12.5M12 12.5L11.2 12.5M12 12.5L12.8 12.5" stroke="#8B5CF6" stroke-width="0.8" fill="none"/>
  <circle cx="11.2" cy="13.2" r="0.6" fill="#C4B5FD"/>
  <circle cx="12.8" cy="13.2" r="0.6" fill="#C4B5FD"/>
  <path d="M11.2 12.5L11.2 12.6M12.8 12.5L12.8 12.6" stroke="#8B5CF6" stroke-width="0.8"/>
  
  <!-- Magnifying glass handle -->
  <path d="M15.5 15.5L20 20" stroke="#8B5CF6" stroke-width="2.5" stroke-linecap="round"/>
  <path d="M15.5 15.5L20 20" stroke="#A78BFA" stroke-width="1.5" stroke-linecap="round"/>
</svg>
